<mxfile host="app.diagrams.net" modified="2021-11-22T03:15:42.263Z" agent="5.0 (Windows NT 10.0; WOW64) AppleWebKit/537.36 (KHTML, like Gecko) Chrome/70.0.3538.25 Safari/537.36 Core/1.70.3877.400 QQBrowser/10.8.4508.400" etag="MbxH4Cqo_u3_QQZNd2GF" version="15.8.3" type="github" pages="3">
  <diagram id="Q2_9AQLTbUxxxYIQFxCd" name="Page-1">
    <mxGraphModel dx="1093" dy="585" grid="0" gridSize="10" guides="1" tooltips="1" connect="1" arrows="1" fold="1" page="1" pageScale="1" pageWidth="827" pageHeight="1169" math="0" shadow="0">
      <root>
        <mxCell id="0" />
        <mxCell id="1" parent="0" />
        <mxCell id="LTR1EGOX5bVpTFS6ZlF_-3" value="" style="edgeStyle=orthogonalEdgeStyle;rounded=0;orthogonalLoop=1;jettySize=auto;html=1;" edge="1" parent="1" source="LTR1EGOX5bVpTFS6ZlF_-1" target="LTR1EGOX5bVpTFS6ZlF_-2">
          <mxGeometry relative="1" as="geometry" />
        </mxCell>
        <mxCell id="LTR1EGOX5bVpTFS6ZlF_-1" value="&lt;br&gt;&lt;br&gt;&lt;br&gt;&lt;br&gt;低代码&lt;br&gt;工程师" style="shape=actor;whiteSpace=wrap;html=1;" vertex="1" parent="1">
          <mxGeometry x="80" y="10" width="70" height="100" as="geometry" />
        </mxCell>
        <mxCell id="LTR1EGOX5bVpTFS6ZlF_-5" value="" style="edgeStyle=orthogonalEdgeStyle;rounded=0;orthogonalLoop=1;jettySize=auto;html=1;" edge="1" parent="1" source="LTR1EGOX5bVpTFS6ZlF_-2" target="LTR1EGOX5bVpTFS6ZlF_-4">
          <mxGeometry relative="1" as="geometry" />
        </mxCell>
        <mxCell id="LTR1EGOX5bVpTFS6ZlF_-2" value="在低代码平台创建工程" style="whiteSpace=wrap;html=1;" vertex="1" parent="1">
          <mxGeometry x="170" y="30" width="80" height="60" as="geometry" />
        </mxCell>
        <mxCell id="LTR1EGOX5bVpTFS6ZlF_-7" value="" style="edgeStyle=orthogonalEdgeStyle;rounded=0;orthogonalLoop=1;jettySize=auto;html=1;" edge="1" parent="1" source="LTR1EGOX5bVpTFS6ZlF_-4" target="LTR1EGOX5bVpTFS6ZlF_-6">
          <mxGeometry relative="1" as="geometry" />
        </mxCell>
        <mxCell id="LTR1EGOX5bVpTFS6ZlF_-4" value="在低代码平台工程下创建应用" style="whiteSpace=wrap;html=1;" vertex="1" parent="1">
          <mxGeometry x="280" y="30" width="120" height="60" as="geometry" />
        </mxCell>
        <mxCell id="LTR1EGOX5bVpTFS6ZlF_-9" value="" style="edgeStyle=orthogonalEdgeStyle;rounded=0;orthogonalLoop=1;jettySize=auto;html=1;exitX=1;exitY=0.5;exitDx=0;exitDy=0;" edge="1" parent="1" source="LTR1EGOX5bVpTFS6ZlF_-35" target="LTR1EGOX5bVpTFS6ZlF_-8">
          <mxGeometry relative="1" as="geometry" />
        </mxCell>
        <mxCell id="LTR1EGOX5bVpTFS6ZlF_-36" value="" style="edgeStyle=orthogonalEdgeStyle;rounded=0;orthogonalLoop=1;jettySize=auto;html=1;fontSize=12;" edge="1" parent="1" source="LTR1EGOX5bVpTFS6ZlF_-6" target="LTR1EGOX5bVpTFS6ZlF_-35">
          <mxGeometry relative="1" as="geometry" />
        </mxCell>
        <mxCell id="LTR1EGOX5bVpTFS6ZlF_-6" value="&lt;font style=&quot;font-size: 12px&quot;&gt;通过拖拽、绑定&lt;span lang=&quot;EN-US&quot; style=&quot;font-family: &amp;#34;times new roman&amp;#34; , serif&quot;&gt;API&lt;/span&gt;等方式实现应用的相关功能&lt;/font&gt;" style="whiteSpace=wrap;html=1;" vertex="1" parent="1">
          <mxGeometry x="420" y="30" width="120" height="60" as="geometry" />
        </mxCell>
        <mxCell id="LTR1EGOX5bVpTFS6ZlF_-11" value="" style="edgeStyle=orthogonalEdgeStyle;rounded=0;orthogonalLoop=1;jettySize=auto;html=1;entryX=1;entryY=0.5;entryDx=0;entryDy=0;" edge="1" parent="1" source="LTR1EGOX5bVpTFS6ZlF_-8" target="LTR1EGOX5bVpTFS6ZlF_-14">
          <mxGeometry relative="1" as="geometry" />
        </mxCell>
        <mxCell id="LTR1EGOX5bVpTFS6ZlF_-8" value="发布应用" style="whiteSpace=wrap;html=1;" vertex="1" parent="1">
          <mxGeometry x="677" y="159" width="120" height="60" as="geometry" />
        </mxCell>
        <mxCell id="LTR1EGOX5bVpTFS6ZlF_-13" value="" style="edgeStyle=orthogonalEdgeStyle;rounded=0;orthogonalLoop=1;jettySize=auto;html=1;" edge="1" parent="1" source="LTR1EGOX5bVpTFS6ZlF_-10" target="LTR1EGOX5bVpTFS6ZlF_-12">
          <mxGeometry relative="1" as="geometry" />
        </mxCell>
        <mxCell id="LTR1EGOX5bVpTFS6ZlF_-15" style="edgeStyle=orthogonalEdgeStyle;rounded=0;orthogonalLoop=1;jettySize=auto;html=1;" edge="1" parent="1" source="LTR1EGOX5bVpTFS6ZlF_-10" target="LTR1EGOX5bVpTFS6ZlF_-12">
          <mxGeometry relative="1" as="geometry" />
        </mxCell>
        <mxCell id="LTR1EGOX5bVpTFS6ZlF_-10" value="服务器容易通过轮询算法自动发现容器中的服务应用实例" style="whiteSpace=wrap;html=1;" vertex="1" parent="1">
          <mxGeometry x="341" y="159" width="120" height="60" as="geometry" />
        </mxCell>
        <mxCell id="LTR1EGOX5bVpTFS6ZlF_-20" value="" style="edgeStyle=orthogonalEdgeStyle;rounded=0;orthogonalLoop=1;jettySize=auto;html=1;fontSize=12;exitX=0;exitY=0.5;exitDx=0;exitDy=0;" edge="1" parent="1" source="LTR1EGOX5bVpTFS6ZlF_-12" target="LTR1EGOX5bVpTFS6ZlF_-19">
          <mxGeometry relative="1" as="geometry" />
        </mxCell>
        <mxCell id="LTR1EGOX5bVpTFS6ZlF_-12" value="根据服务应用上的标签信息自动注册服务到网关" style="whiteSpace=wrap;html=1;" vertex="1" parent="1">
          <mxGeometry x="191" y="159" width="120" height="60" as="geometry" />
        </mxCell>
        <mxCell id="LTR1EGOX5bVpTFS6ZlF_-16" style="edgeStyle=orthogonalEdgeStyle;rounded=0;orthogonalLoop=1;jettySize=auto;html=1;entryX=1;entryY=0.5;entryDx=0;entryDy=0;" edge="1" parent="1" source="LTR1EGOX5bVpTFS6ZlF_-14" target="LTR1EGOX5bVpTFS6ZlF_-10">
          <mxGeometry relative="1" as="geometry" />
        </mxCell>
        <mxCell id="LTR1EGOX5bVpTFS6ZlF_-14" value="&lt;font style=&quot;font-size: 12px&quot;&gt;低代码平台获取发布环境信息及用户自定义配置信息&lt;/font&gt;" style="whiteSpace=wrap;html=1;" vertex="1" parent="1">
          <mxGeometry x="491" y="159" width="120" height="60" as="geometry" />
        </mxCell>
        <mxCell id="LTR1EGOX5bVpTFS6ZlF_-22" value="" style="edgeStyle=orthogonalEdgeStyle;rounded=0;orthogonalLoop=1;jettySize=auto;html=1;fontSize=12;exitX=1;exitY=0.5;exitDx=0;exitDy=0;" edge="1" parent="1" source="LTR1EGOX5bVpTFS6ZlF_-19" target="LTR1EGOX5bVpTFS6ZlF_-21">
          <mxGeometry relative="1" as="geometry">
            <Array as="points">
              <mxPoint x="282" y="275" />
              <mxPoint x="282" y="275" />
            </Array>
          </mxGeometry>
        </mxCell>
        <mxCell id="LTR1EGOX5bVpTFS6ZlF_-19" value="网关动态检测发布的&lt;br&gt;应用服务是否可用" style="rhombus;whiteSpace=wrap;html=1;align=center;" vertex="1" parent="1">
          <mxGeometry x="46" y="215" width="155" height="120" as="geometry" />
        </mxCell>
        <mxCell id="LTR1EGOX5bVpTFS6ZlF_-21" value="自动尝试重新部署启动服务，通知平台管理员&amp;nbsp;" style="whiteSpace=wrap;html=1;" vertex="1" parent="1">
          <mxGeometry x="291" y="247" width="120" height="60" as="geometry" />
        </mxCell>
        <mxCell id="LTR1EGOX5bVpTFS6ZlF_-23" value="&lt;font style=&quot;font-size: 14px&quot;&gt;否&lt;/font&gt;" style="text;strokeColor=none;fillColor=none;html=1;fontSize=24;fontStyle=1;verticalAlign=middle;align=center;" vertex="1" parent="1">
          <mxGeometry x="183.5" y="242" width="100" height="40" as="geometry" />
        </mxCell>
        <mxCell id="LTR1EGOX5bVpTFS6ZlF_-32" value="&lt;font style=&quot;font-size: 12px&quot;&gt;应用服务自动注册网关成功&lt;/font&gt;" style="rounded=1;whiteSpace=wrap;html=1;fontSize=14;align=center;" vertex="1" parent="1">
          <mxGeometry x="63.5" y="396" width="120" height="60" as="geometry" />
        </mxCell>
        <mxCell id="LTR1EGOX5bVpTFS6ZlF_-33" value="" style="group" vertex="1" connectable="0" parent="1">
          <mxGeometry x="81" y="335" width="100" height="40" as="geometry" />
        </mxCell>
        <mxCell id="LTR1EGOX5bVpTFS6ZlF_-30" value="" style="edgeStyle=orthogonalEdgeStyle;rounded=0;orthogonalLoop=1;jettySize=auto;html=1;fontSize=14;entryX=0.5;entryY=0;entryDx=0;entryDy=0;" edge="1" parent="LTR1EGOX5bVpTFS6ZlF_-33" source="LTR1EGOX5bVpTFS6ZlF_-19" target="LTR1EGOX5bVpTFS6ZlF_-32">
          <mxGeometry relative="1" as="geometry">
            <mxPoint x="60" y="103.99999999999989" as="targetPoint" />
          </mxGeometry>
        </mxCell>
        <mxCell id="LTR1EGOX5bVpTFS6ZlF_-31" value="&lt;span style=&quot;font-size: 14px&quot;&gt;是&lt;/span&gt;" style="text;strokeColor=none;fillColor=none;html=1;fontSize=24;fontStyle=1;verticalAlign=middle;align=center;" vertex="1" parent="LTR1EGOX5bVpTFS6ZlF_-33">
          <mxGeometry width="100" height="40" as="geometry" />
        </mxCell>
        <mxCell id="LTR1EGOX5bVpTFS6ZlF_-35" value="低代码平台根据生成的应用的模型自动给应用生成标签" style="whiteSpace=wrap;html=1;" vertex="1" parent="1">
          <mxGeometry x="594" y="30" width="120" height="60" as="geometry" />
        </mxCell>
      </root>
    </mxGraphModel>
  </diagram>
  <diagram name="Copy of Page-1" id="m7hcSeqHr5RmBjIecu5M">
    <mxGraphModel dx="1038" dy="557" grid="0" gridSize="10" guides="1" tooltips="1" connect="1" arrows="1" fold="1" page="1" pageScale="1" pageWidth="827" pageHeight="1169" math="0" shadow="0">
      <root>
        <mxCell id="KzIgHV3jRO6sCPjwYxui-0" />
        <mxCell id="KzIgHV3jRO6sCPjwYxui-1" parent="KzIgHV3jRO6sCPjwYxui-0" />
        <mxCell id="KzIgHV3jRO6sCPjwYxui-2" value="" style="edgeStyle=orthogonalEdgeStyle;rounded=0;orthogonalLoop=1;jettySize=auto;html=1;" edge="1" parent="KzIgHV3jRO6sCPjwYxui-1" source="KzIgHV3jRO6sCPjwYxui-3" target="KzIgHV3jRO6sCPjwYxui-5">
          <mxGeometry relative="1" as="geometry" />
        </mxCell>
        <mxCell id="KzIgHV3jRO6sCPjwYxui-3" value="&lt;br&gt;&lt;br&gt;&lt;br&gt;&lt;br&gt;低代码&lt;br&gt;工程师" style="shape=actor;whiteSpace=wrap;html=1;" vertex="1" parent="KzIgHV3jRO6sCPjwYxui-1">
          <mxGeometry x="80" y="10" width="70" height="100" as="geometry" />
        </mxCell>
        <mxCell id="KzIgHV3jRO6sCPjwYxui-4" value="" style="edgeStyle=orthogonalEdgeStyle;rounded=0;orthogonalLoop=1;jettySize=auto;html=1;" edge="1" parent="KzIgHV3jRO6sCPjwYxui-1" source="KzIgHV3jRO6sCPjwYxui-5" target="KzIgHV3jRO6sCPjwYxui-7">
          <mxGeometry relative="1" as="geometry" />
        </mxCell>
        <mxCell id="KzIgHV3jRO6sCPjwYxui-5" value="在低代码平台创建工程" style="whiteSpace=wrap;html=1;" vertex="1" parent="KzIgHV3jRO6sCPjwYxui-1">
          <mxGeometry x="170" y="30" width="80" height="60" as="geometry" />
        </mxCell>
        <mxCell id="KzIgHV3jRO6sCPjwYxui-6" value="" style="edgeStyle=orthogonalEdgeStyle;rounded=0;orthogonalLoop=1;jettySize=auto;html=1;" edge="1" parent="KzIgHV3jRO6sCPjwYxui-1" source="KzIgHV3jRO6sCPjwYxui-7" target="KzIgHV3jRO6sCPjwYxui-10">
          <mxGeometry relative="1" as="geometry" />
        </mxCell>
        <mxCell id="KzIgHV3jRO6sCPjwYxui-7" value="在低代码平台工程下创建应用" style="whiteSpace=wrap;html=1;" vertex="1" parent="KzIgHV3jRO6sCPjwYxui-1">
          <mxGeometry x="287" y="30" width="120" height="60" as="geometry" />
        </mxCell>
        <mxCell id="KzIgHV3jRO6sCPjwYxui-8" value="" style="edgeStyle=orthogonalEdgeStyle;rounded=0;orthogonalLoop=1;jettySize=auto;html=1;exitX=1;exitY=0.5;exitDx=0;exitDy=0;" edge="1" parent="KzIgHV3jRO6sCPjwYxui-1" source="KzIgHV3jRO6sCPjwYxui-10" target="KzIgHV3jRO6sCPjwYxui-12">
          <mxGeometry relative="1" as="geometry">
            <mxPoint x="714" y="60" as="sourcePoint" />
          </mxGeometry>
        </mxCell>
        <mxCell id="KzIgHV3jRO6sCPjwYxui-10" value="&lt;font style=&quot;font-size: 12px&quot;&gt;通过拖拽、绑定&lt;span lang=&quot;EN-US&quot; style=&quot;font-family: &amp;#34;times new roman&amp;#34; , serif&quot;&gt;API&lt;/span&gt;等方式实现应用的相关功能&lt;/font&gt;" style="whiteSpace=wrap;html=1;" vertex="1" parent="KzIgHV3jRO6sCPjwYxui-1">
          <mxGeometry x="442" y="30" width="120" height="60" as="geometry" />
        </mxCell>
        <mxCell id="UMeSr6DBONTCVmWDwUXn-1" value="" style="edgeStyle=orthogonalEdgeStyle;rounded=0;orthogonalLoop=1;jettySize=auto;html=1;fontSize=12;" edge="1" parent="KzIgHV3jRO6sCPjwYxui-1" source="KzIgHV3jRO6sCPjwYxui-12" target="KzIgHV3jRO6sCPjwYxui-19">
          <mxGeometry relative="1" as="geometry" />
        </mxCell>
        <mxCell id="KzIgHV3jRO6sCPjwYxui-12" value="发布应用" style="whiteSpace=wrap;html=1;" vertex="1" parent="KzIgHV3jRO6sCPjwYxui-1">
          <mxGeometry x="597" y="30" width="120" height="60" as="geometry" />
        </mxCell>
        <mxCell id="KzIgHV3jRO6sCPjwYxui-13" value="" style="edgeStyle=orthogonalEdgeStyle;rounded=0;orthogonalLoop=1;jettySize=auto;html=1;" edge="1" parent="KzIgHV3jRO6sCPjwYxui-1" source="KzIgHV3jRO6sCPjwYxui-15" target="KzIgHV3jRO6sCPjwYxui-17">
          <mxGeometry relative="1" as="geometry" />
        </mxCell>
        <mxCell id="KzIgHV3jRO6sCPjwYxui-14" style="edgeStyle=orthogonalEdgeStyle;rounded=0;orthogonalLoop=1;jettySize=auto;html=1;" edge="1" parent="KzIgHV3jRO6sCPjwYxui-1" source="KzIgHV3jRO6sCPjwYxui-15" target="KzIgHV3jRO6sCPjwYxui-17">
          <mxGeometry relative="1" as="geometry" />
        </mxCell>
        <mxCell id="KzIgHV3jRO6sCPjwYxui-15" value="根据表单绑定的API自动注册到网关上" style="whiteSpace=wrap;html=1;" vertex="1" parent="KzIgHV3jRO6sCPjwYxui-1">
          <mxGeometry x="442" y="125" width="120" height="60" as="geometry" />
        </mxCell>
        <mxCell id="UMeSr6DBONTCVmWDwUXn-3" value="" style="edgeStyle=orthogonalEdgeStyle;rounded=0;orthogonalLoop=1;jettySize=auto;html=1;fontFamily=Helvetica;fontSize=12;" edge="1" parent="KzIgHV3jRO6sCPjwYxui-1" source="KzIgHV3jRO6sCPjwYxui-17" target="UMeSr6DBONTCVmWDwUXn-2">
          <mxGeometry relative="1" as="geometry" />
        </mxCell>
        <mxCell id="KzIgHV3jRO6sCPjwYxui-17" value="&lt;font style=&quot;font-size: 12px&quot;&gt;根据绑定的&lt;span lang=&quot;EN-US&quot;&gt;API&lt;/span&gt;所需要的策略控制通过相似性分析算法来自动进行网关的策略控制的配置&lt;/font&gt;" style="whiteSpace=wrap;html=1;" vertex="1" parent="KzIgHV3jRO6sCPjwYxui-1">
          <mxGeometry x="212" y="125" width="195" height="60" as="geometry" />
        </mxCell>
        <mxCell id="KzIgHV3jRO6sCPjwYxui-18" style="edgeStyle=orthogonalEdgeStyle;rounded=0;orthogonalLoop=1;jettySize=auto;html=1;entryX=1;entryY=0.5;entryDx=0;entryDy=0;" edge="1" parent="KzIgHV3jRO6sCPjwYxui-1" source="KzIgHV3jRO6sCPjwYxui-19" target="KzIgHV3jRO6sCPjwYxui-15">
          <mxGeometry relative="1" as="geometry" />
        </mxCell>
        <mxCell id="KzIgHV3jRO6sCPjwYxui-19" value="低代码平台自动创建网关" style="whiteSpace=wrap;html=1;" vertex="1" parent="KzIgHV3jRO6sCPjwYxui-1">
          <mxGeometry x="597" y="125" width="120" height="60" as="geometry" />
        </mxCell>
        <mxCell id="KzIgHV3jRO6sCPjwYxui-20" value="" style="edgeStyle=orthogonalEdgeStyle;rounded=0;orthogonalLoop=1;jettySize=auto;html=1;fontSize=12;exitX=1;exitY=0.5;exitDx=0;exitDy=0;" edge="1" parent="KzIgHV3jRO6sCPjwYxui-1" source="KzIgHV3jRO6sCPjwYxui-21" target="KzIgHV3jRO6sCPjwYxui-22">
          <mxGeometry relative="1" as="geometry">
            <Array as="points">
              <mxPoint x="282" y="275" />
              <mxPoint x="282" y="275" />
            </Array>
          </mxGeometry>
        </mxCell>
        <mxCell id="KzIgHV3jRO6sCPjwYxui-21" value="网关自动检测发布的&lt;br&gt;API是否可用" style="rhombus;whiteSpace=wrap;html=1;align=center;" vertex="1" parent="KzIgHV3jRO6sCPjwYxui-1">
          <mxGeometry x="43.5" y="215" width="155" height="120" as="geometry" />
        </mxCell>
        <mxCell id="KzIgHV3jRO6sCPjwYxui-22" value="自动尝试重新注册发布API，通知平台管理员&amp;nbsp;" style="whiteSpace=wrap;html=1;" vertex="1" parent="KzIgHV3jRO6sCPjwYxui-1">
          <mxGeometry x="277" y="247" width="120" height="60" as="geometry" />
        </mxCell>
        <mxCell id="KzIgHV3jRO6sCPjwYxui-23" value="&lt;font style=&quot;font-size: 14px&quot;&gt;否&lt;/font&gt;" style="text;strokeColor=none;fillColor=none;html=1;fontSize=24;fontStyle=1;verticalAlign=middle;align=center;" vertex="1" parent="KzIgHV3jRO6sCPjwYxui-1">
          <mxGeometry x="183.5" y="242" width="100" height="40" as="geometry" />
        </mxCell>
        <mxCell id="KzIgHV3jRO6sCPjwYxui-24" value="&lt;font style=&quot;font-size: 12px&quot;&gt;应用服务自动注册网关成功&lt;/font&gt;" style="rounded=1;whiteSpace=wrap;html=1;fontSize=14;align=center;" vertex="1" parent="KzIgHV3jRO6sCPjwYxui-1">
          <mxGeometry x="61" y="394" width="120" height="60" as="geometry" />
        </mxCell>
        <mxCell id="KzIgHV3jRO6sCPjwYxui-25" value="" style="group" vertex="1" connectable="0" parent="KzIgHV3jRO6sCPjwYxui-1">
          <mxGeometry x="81" y="335" width="100" height="40" as="geometry" />
        </mxCell>
        <mxCell id="KzIgHV3jRO6sCPjwYxui-26" value="" style="edgeStyle=orthogonalEdgeStyle;rounded=0;orthogonalLoop=1;jettySize=auto;html=1;fontSize=14;entryX=0.5;entryY=0;entryDx=0;entryDy=0;" edge="1" parent="KzIgHV3jRO6sCPjwYxui-25" source="KzIgHV3jRO6sCPjwYxui-21" target="KzIgHV3jRO6sCPjwYxui-24">
          <mxGeometry relative="1" as="geometry">
            <mxPoint x="60" y="103.99999999999989" as="targetPoint" />
          </mxGeometry>
        </mxCell>
        <mxCell id="KzIgHV3jRO6sCPjwYxui-27" value="&lt;span style=&quot;font-size: 14px&quot;&gt;是&lt;/span&gt;" style="text;strokeColor=none;fillColor=none;html=1;fontSize=24;fontStyle=1;verticalAlign=middle;align=center;" vertex="1" parent="KzIgHV3jRO6sCPjwYxui-25">
          <mxGeometry width="100" height="40" as="geometry" />
        </mxCell>
        <mxCell id="UMeSr6DBONTCVmWDwUXn-4" value="" style="edgeStyle=orthogonalEdgeStyle;rounded=0;orthogonalLoop=1;jettySize=auto;html=1;fontFamily=Helvetica;fontSize=12;" edge="1" parent="KzIgHV3jRO6sCPjwYxui-1" source="UMeSr6DBONTCVmWDwUXn-2" target="KzIgHV3jRO6sCPjwYxui-21">
          <mxGeometry relative="1" as="geometry" />
        </mxCell>
        <mxCell id="UMeSr6DBONTCVmWDwUXn-2" value="自动将注册到网关的API进行发布" style="whiteSpace=wrap;html=1;" vertex="1" parent="KzIgHV3jRO6sCPjwYxui-1">
          <mxGeometry x="61" y="125" width="120" height="60" as="geometry" />
        </mxCell>
      </root>
    </mxGraphModel>
  </diagram>
  <diagram id="xNmHdJDMxVP9FZxVf5kX" name="Page-2">
    <mxGraphModel dx="1038" dy="556" grid="0" gridSize="10" guides="1" tooltips="1" connect="1" arrows="1" fold="1" page="1" pageScale="1" pageWidth="827" pageHeight="1169" math="0" shadow="0">
      <root>
        <mxCell id="UHMck5Mz4kBWA1REXlxc-0" />
        <mxCell id="UHMck5Mz4kBWA1REXlxc-1" parent="UHMck5Mz4kBWA1REXlxc-0" />
      </root>
    </mxGraphModel>
  </diagram>
</mxfile>
